<svg xmlns="http://www.w3.org/2000/svg" xmlns:xlink="http://www.w3.org/1999/xlink" version="1.0" x="0px" y="0px" viewBox="210 120 1290 684" xml:space="preserve">
<g id="background">
	<g>
		<circle fill="#56A66D" cx="1324.63" cy="665.741" r="54.716"/>
		<circle fill="#6BBF77" cx="1401.33" cy="674.38" r="42.01"/>
		<g>
			<g>
				<circle fill="#6BBF77" cx="1315.966" cy="513.295" r="40.868"/>
			</g>
			<g>
				<path fill="#7C5054" d="M1309.856,668.296l5.223-156.238c0.026-0.788,0.673-1.413,1.461-1.413l0,0      c0.804,0,1.456,0.649,1.461,1.453l0.932,156.138L1309.856,668.296z"/>
			</g>
			<g>
				<path fill="#7C5054" d="M1315.966,583.267l-12.454-12.95c-0.44-0.458-1.168-0.474-1.628-0.036      c-0.452,0.429-0.482,1.139-0.068,1.605l11.962,13.461L1315.966,583.267z"/>
			</g>
			<g>
				<path fill="#7C5054" d="M1318.381,537.115l10.691-14.439c0.378-0.51,0.273-1.231-0.235-1.612      c-0.498-0.374-1.203-0.285-1.593,0.201l-11.278,14.039L1318.381,537.115z"/>
			</g>
		</g>
		<g>
			<g>
				<circle fill="#56A66D" cx="1363.633" cy="558.869" r="28.852"/>
			</g>
			<g>
				<path fill="#7C5054" d="M1359.32,668.296l3.687-110.3c0.018-0.556,0.475-0.997,1.031-0.997l0,0c0.568,0,1.029,0.458,1.032,1.026      l0.658,110.229L1359.32,668.296z"/>
			</g>
			<g>
				<path fill="#7C5054" d="M1363.633,608.268l-8.792-9.142c-0.311-0.323-0.824-0.335-1.149-0.026      c-0.319,0.303-0.34,0.804-0.048,1.133l8.445,9.503L1363.633,608.268z"/>
			</g>
			<g>
				<path fill="#7C5054" d="M1365.338,575.686l7.548-10.194c0.267-0.361,0.193-0.869-0.166-1.138      c-0.352-0.264-0.849-0.201-1.125,0.142l-7.962,9.911L1365.338,575.686z"/>
			</g>
		</g>
		<circle fill="#6BBF77" cx="434.699" cy="632.37" r="54.716"/>
		<circle fill="#56A66D" cx="376.579" cy="664.356" r="54.716"/>
		<g>
			<g>
				<circle fill="#6BBF77" cx="365.488" cy="535.775" r="34.941"/>
			</g>
			<g>
				<path fill="#7C5054" d="M360.265,668.296l4.465-133.579c0.022-0.673,0.575-1.208,1.249-1.208l0,0      c0.687,0,1.245,0.555,1.249,1.242l0.797,133.493L360.265,668.296z"/>
			</g>
			<g>
				<path fill="#7C5054" d="M365.488,595.599l-10.648-11.072c-0.376-0.391-0.998-0.405-1.392-0.031      c-0.386,0.367-0.412,0.974-0.058,1.372l10.227,11.509L365.488,595.599z"/>
			</g>
			<g>
				<path fill="#7C5054" d="M367.553,556.14l9.141-12.345c0.323-0.436,0.234-1.052-0.201-1.378c-0.426-0.32-1.029-0.244-1.362,0.172      l-9.642,12.003L367.553,556.14z"/>
			</g>
		</g>
		<g>
			<g>
				<circle fill="#56A66D" cx="421.027" cy="561.26" r="30.948"/>
			</g>
			<g>
				<path fill="#7C5054" d="M416.401,678.637l3.955-118.313c0.02-0.596,0.509-1.07,1.106-1.07l0,0c0.609,0,1.103,0.492,1.107,1.1      l0.706,118.238L416.401,678.637z"/>
			</g>
			<g>
				<path fill="#7C5054" d="M421.027,614.247l-9.431-9.806c-0.333-0.347-0.884-0.359-1.233-0.028      c-0.342,0.325-0.365,0.863-0.052,1.215l9.058,10.193L421.027,614.247z"/>
			</g>
			<g>
				<path fill="#7C5054" d="M422.856,579.298l8.096-10.934c0.287-0.387,0.207-0.932-0.178-1.221      c-0.377-0.283-0.911-0.215-1.207,0.152l-8.54,10.631L422.856,579.298z"/>
			</g>
		</g>
		<g>
			<g>
				<circle fill="#56A66D" cx="295.088" cy="578.367" r="26.438"/>
			</g>
			<g>
				<path fill="#7C5054" d="M291.136,678.637l3.379-101.07c0.017-0.51,0.435-0.914,0.945-0.914l0,0c0.52,0,0.942,0.42,0.945,0.94      l0.603,101.005L291.136,678.637z"/>
			</g>
			<g>
				<path fill="#7C5054" d="M295.089,623.632l-8.057-8.377c-0.285-0.296-0.755-0.307-1.053-0.024      c-0.292,0.278-0.312,0.737-0.044,1.038l7.738,8.708L295.089,623.632z"/>
			</g>
			<g>
				<path fill="#7C5054" d="M296.651,593.776l6.916-9.341c0.245-0.33,0.177-0.796-0.152-1.043c-0.322-0.242-0.778-0.184-1.031,0.13      l-7.295,9.082L296.651,593.776z"/>
			</g>
		</g>
		<g/>
		<g>
			<path fill="#6BBF77" d="M1446.749,728.477H253.251c-17.164,0-31.208-14.044-31.208-31.208l0,0     c0-17.164,14.044-31.208,31.208-31.208h1193.497c17.165,0,31.208,14.044,31.208,31.208l0,0     C1477.957,714.434,1463.913,728.477,1446.749,728.477z"/>
		</g>
		<g opacity="0.1">
			<path d="M1307.363,684.18H438.589c-2.212,0-4.005-1.793-4.005-4.005v-17.398c0-2.212,1.793-4.005,4.005-4.005h868.774     c2.212,0,4.005,1.793,4.005,4.005v17.398C1311.368,682.387,1309.575,684.18,1307.363,684.18z"/>
		</g>
		
		<g transform="matrix(0.85913, 0, 0, 0.85913, 122.04113, 82.279556)">
			<g>
				<circle fill="#9CD2FF" cx="868.879" cy="415.203" r="242.095"/>
			</g>
			<g opacity="0.2">
				<path fill="#FFFFFF" d="M1018.915,275.594l-364.638,27.503c-4.19,8.004-7.943,16.272-11.233,24.771l459.813,24.836      c-9.756-36.61-27.875-69.805-52.188-97.418l-65.093-16.298c-4.607-1.153-2.443-5.906,2.923-6.034l38.72-0.917      c-42.445-36.718-97.785-58.931-158.313-58.931c-26.418,0-51.846,4.235-75.646,12.057c-0.287,0.141-0.623,0.254-1.01,0.335      c-45.301,15.111-84.646,43.244-113.587,79.962l342.676,6.288C1025.813,272.065,1023.529,275.511,1018.915,275.594z"/>
			</g>
		</g>
		<g transform="matrix(0.85913, 0, 0, 0.85913, 122.04113, 82.279556)">
			<path fill="#EEEEEE" d="M728.308,360.9h-92.005c-4.821,0-8.765-3.944-8.765-8.765l0,0c0-4.821,3.944-8.765,8.765-8.765h92.005     c4.821,0,8.765,3.944,8.765,8.765l0,0C737.073,356.956,733.129,360.9,728.308,360.9z"/>
		</g>
		<g transform="matrix(0.85913, 0, 0, 0.85913, 122.04113, 82.279556)">
			<path fill="#EEEEEE" d="M690.854,343.37h-92.005c-4.821,0-8.765-3.944-8.765-8.765l0,0c0-4.821,3.944-8.765,8.765-8.765h92.005     c4.821,0,8.765,3.944,8.765,8.765l0,0C699.619,339.426,695.675,343.37,690.854,343.37z"/>
		</g>
		<g transform="matrix(0.85913, 0, 0, 0.85913, 122.04113, 82.279556)">
			<path fill="#EEEEEE" d="M1165.631,324.742h-92.005c-4.821,0-8.765-3.944-8.765-8.765l0,0c0-4.821,3.944-8.765,8.765-8.765h92.005     c4.821,0,8.765,3.944,8.765,8.765l0,0C1174.396,320.798,1170.451,324.742,1165.631,324.742z"/>
		</g>
		<g>
			<path fill="#EEEEEE" d="M 1091.292 346.214 L 1012.248 346.214 C 1008.105 346.214 1004.717 342.825 1004.717 338.685 L 1004.717 338.685 C 1004.717 334.542 1008.105 331.155 1012.248 331.155 L 1091.292 331.155 C 1095.434 331.155 1098.822 334.542 1098.822 338.685 L 1098.822 338.685 C 1098.822 342.825 1095.434 346.214 1091.292 346.214 Z"/>
		</g>
		<g>
			<path fill="#F6EECC" d="M1056.783,500H680.975c-10.77,0-19.5-8.73-19.5-19.5v-60.44c0-10.77,8.73-19.5,19.5-19.5h375.807     c10.77,0,19.5,8.73,19.5,19.5v60.44C1076.283,491.27,1067.552,500,1056.783,500z"/>
			<rect x="450.52" y="438.004" fill="#9A492C" width="836.718" height="227.851"/>
			<rect x="450.52" y="438.004" fill="#FF9F28" width="836.718" height="11.213"/>
			<rect x="450.52" y="517.58" opacity="0.1" width="307.022" height="31.43"/>
			<rect x="980.217" y="517.58" opacity="0.1" width="307.022" height="31.43"/>
			<rect x="731.893" y="526.281" fill="#F6EECC" width="25.649" height="139.574"/>
			<rect x="980.217" y="510.832" fill="#F6EECC" width="315.9" height="25.649"/>
			<rect x="441.642" y="510.832" fill="#F6EECC" width="315.9" height="25.649"/>
			<rect x="980.217" y="526.281" fill="#F6EECC" width="25.649" height="139.574"/>
			<g>
				<rect x="757.542" y="576.711" fill="#7E9AFF" width="222.675" height="89.144"/>
				<rect x="757.542" y="574.847" opacity="0.1" width="222.675" height="9.855"/>
				<rect x="757.542" y="578.868" opacity="0.07" width="7.281" height="86.986"/>
				<polygon opacity="0.2" fill="#FFFFFF" points="804.776,665.855 790.925,665.855 835.673,575.379 849.524,575.379     "/>
				<polygon opacity="0.2" fill="#FFFFFF" points="827.727,665.855 813.876,665.855 858.624,575.379 872.475,575.379     "/>
				<polygon opacity="0.2" fill="#FFFFFF" points="889.389,665.855 875.538,665.855 920.286,575.379 934.137,575.379     "/>
				<rect x="972.936" y="578.868" opacity="0.07" width="7.281" height="86.986"/>
				<rect x="757.542" y="567.655" fill="#FF9F28" width="222.675" height="11.213"/>
				<g opacity="0.07">
					<g>
						<g>
							<rect x="810.281" y="578.869" width="2.131" height="86.872"/>
						</g>
						<g>
							<rect x="868.879" y="578.869" width="2.131" height="86.872"/>
						</g>
						<g>
							<rect x="927.478" y="578.869" width="2.131" height="86.872"/>
						</g>
					</g>
					<g>
						<rect x="757.542" y="625.351" width="222.675" height="2.131"/>
					</g>
				</g>
				<g>
					<g>
						<g>
							<rect x="809.215" y="578.869" fill="#FFFFFF" width="2.131" height="86.987"/>
						</g>
						<g>
							<rect x="867.814" y="578.869" fill="#FFFFFF" width="2.131" height="86.987"/>
						</g>
						<g>
							<rect x="926.412" y="578.869" fill="#FFFFFF" width="2.131" height="86.987"/>
						</g>
					</g>
					<g>
						<rect x="757.542" y="623.324" fill="#FFFFFF" width="222.675" height="2.131"/>
					</g>
				</g>
			</g>
			<g>
				<g>
					<g>
						<g>
							<rect x="511.728" y="560.094" fill="#7E9AFF" width="32.045" height="79.843"/>
						</g>
						<g>
							<g opacity="0.2">
								<polygon fill="#FFFFFF" points="533.947,561.088 512.721,627.165 512.721,638.943 514.189,638.943 539.198,561.088                   "/>
							</g>
							<g opacity="0.2">
								<polygon fill="#FFFFFF" points="512.721,615.105 530.073,561.088 528.316,561.088 512.721,609.637         "/>
							</g>
							<g opacity="0.2">
								<polygon fill="#FFFFFF" points="543.375,565.563 519.805,638.943 525.056,638.943 543.375,581.91         "/>
							</g>
						</g>
						<g>
							<g>
								<rect x="511.728" y="570.625" fill="#EEEEEE" width="32.045" height="1.466"/>
							</g>
							<g>
								<rect x="511.728" y="584.953" fill="#EEEEEE" width="32.045" height="1.466"/>
							</g>
							<g>
								<rect x="511.728" y="599.283" fill="#EEEEEE" width="32.045" height="1.466"/>
							</g>
							<g>
								<rect x="511.728" y="613.61" fill="#EEEEEE" width="32.045" height="1.466"/>
							</g>
							<g>
								<rect x="511.728" y="627.94" fill="#EEEEEE" width="32.045" height="1.466"/>
							</g>
						</g>
						<g>
							<rect x="527.018" y="560.094" fill="#EEEEEE" width="1.466" height="79.843"/>
						</g>
						<g opacity="0.1">
							<polygon points="543.11,563.023 515.613,563.023 515.613,639.553 511.879,639.553 511.879,560.621 543.11,560.621        "/>
						</g>
						<g>
							<g>
								<path fill="#F6EECC" d="M544.767,640.931h-34.033V559.1h34.033L544.767,640.931L544.767,640.931z M512.721,638.943h30.057          v-77.855h-30.057V638.943z"/>
							</g>
						</g>
					</g>
					<g>
						<g>
							<rect x="575.493" y="560.094" fill="#7E9AFF" width="32.045" height="79.843"/>
						</g>
						<g>
							<g opacity="0.2">
								<polygon fill="#FFFFFF" points="597.712,561.088 576.487,627.165 576.487,638.943 577.955,638.943 602.963,561.088                   "/>
							</g>
							<g opacity="0.2">
								<polygon fill="#FFFFFF" points="576.487,615.105 593.838,561.088 592.082,561.088 576.487,609.637         "/>
							</g>
							<g opacity="0.2">
								<polygon fill="#FFFFFF" points="607.141,565.563 583.57,638.943 588.821,638.943 607.141,581.91         "/>
							</g>
						</g>
						<g>
							<g>
								<rect x="575.493" y="570.625" fill="#EEEEEE" width="32.045" height="1.466"/>
							</g>
							<g>
								<rect x="575.493" y="584.953" fill="#EEEEEE" width="32.045" height="1.466"/>
							</g>
							<g>
								<rect x="575.493" y="599.283" fill="#EEEEEE" width="32.045" height="1.466"/>
							</g>
							<g>
								<rect x="575.493" y="613.61" fill="#EEEEEE" width="32.045" height="1.466"/>
							</g>
							<g>
								<rect x="575.493" y="627.94" fill="#EEEEEE" width="32.045" height="1.466"/>
							</g>
						</g>
						<g>
							<rect x="590.784" y="560.094" fill="#EEEEEE" width="1.466" height="79.843"/>
						</g>
						<g opacity="0.1">
							<polygon points="606.876,563.023 579.378,563.023 579.378,639.553 575.644,639.553 575.644,560.621 606.876,560.621                 "/>
						</g>
						<g>
							<g>
								<path fill="#F6EECC" d="M608.532,640.931h-34.033V559.1h34.033L608.532,640.931L608.532,640.931z M576.487,638.943h30.057          v-77.855h-30.057V638.943z"/>
							</g>
						</g>
					</g>
					<g>
						<g>
							<rect x="639.259" y="560.094" fill="#7E9AFF" width="32.045" height="79.843"/>
						</g>
						<g>
							<g opacity="0.2">
								<polygon fill="#FFFFFF" points="661.477,561.088 640.252,627.165 640.252,638.943 641.72,638.943 666.728,561.088                   "/>
							</g>
							<g opacity="0.2">
								<polygon fill="#FFFFFF" points="640.252,615.105 657.604,561.088 655.847,561.088 640.252,609.637         "/>
							</g>
							<g opacity="0.2">
								<polygon fill="#FFFFFF" points="670.906,565.563 647.335,638.943 652.587,638.943 670.906,581.91         "/>
							</g>
						</g>
						<g>
							<g>
								<rect x="639.259" y="570.625" fill="#EEEEEE" width="32.045" height="1.466"/>
							</g>
							<g>
								<rect x="639.259" y="584.953" fill="#EEEEEE" width="32.045" height="1.466"/>
							</g>
							<g>
								<rect x="639.259" y="599.283" fill="#EEEEEE" width="32.045" height="1.466"/>
							</g>
							<g>
								<rect x="639.259" y="613.61" fill="#EEEEEE" width="32.045" height="1.466"/>
							</g>
							<g>
								<rect x="639.259" y="627.94" fill="#EEEEEE" width="32.045" height="1.466"/>
							</g>
						</g>
						<g>
							<rect x="654.549" y="560.094" fill="#EEEEEE" width="1.466" height="79.843"/>
						</g>
						<g opacity="0.1">
							<polygon points="670.641,563.023 643.143,563.023 643.143,639.553 639.409,639.553 639.409,560.621 670.641,560.621                 "/>
						</g>
						<g>
							<g>
								<path fill="#F6EECC" d="M672.297,640.931h-34.033V559.1h34.033L672.297,640.931L672.297,640.931z M640.252,638.943h30.057          v-77.855h-30.057V638.943z"/>
							</g>
						</g>
					</g>
				</g>
				<g>
					<g>
						<g>
							<rect x="1066.455" y="560.094" fill="#7E9AFF" width="32.045" height="79.843"/>
						</g>
						<g>
							<g opacity="0.2">
								<polygon fill="#FFFFFF" points="1088.673,561.088 1067.448,627.165 1067.448,638.943 1068.916,638.943 1093.925,561.088                   "/>
							</g>
							<g opacity="0.2">
								<polygon fill="#FFFFFF" points="1067.448,615.105 1084.8,561.088 1083.043,561.088 1067.448,609.637         "/>
							</g>
							<g opacity="0.2">
								<polygon fill="#FFFFFF" points="1098.102,565.563 1074.531,638.943 1079.783,638.943 1098.102,581.91         "/>
							</g>
						</g>
						<g>
							<g>
								<rect x="1066.455" y="570.625" fill="#EEEEEE" width="32.045" height="1.466"/>
							</g>
							<g>
								<rect x="1066.455" y="584.953" fill="#EEEEEE" width="32.045" height="1.466"/>
							</g>
							<g>
								<rect x="1066.455" y="599.283" fill="#EEEEEE" width="32.045" height="1.466"/>
							</g>
							<g>
								<rect x="1066.455" y="613.61" fill="#EEEEEE" width="32.045" height="1.466"/>
							</g>
							<g>
								<rect x="1066.455" y="627.94" fill="#EEEEEE" width="32.045" height="1.466"/>
							</g>
						</g>
						<g>
							<rect x="1081.745" y="560.094" fill="#EEEEEE" width="1.466" height="79.843"/>
						</g>
						<g opacity="0.1">
							<polygon points="1097.837,563.023 1070.34,563.023 1070.34,639.553 1066.605,639.553 1066.605,560.621 1097.837,560.621                 "/>
						</g>
						<g>
							<g>
								<path fill="#F6EECC" d="M1099.494,640.931h-34.033V559.1h34.033L1099.494,640.931L1099.494,640.931z M1067.448,638.943          h30.057v-77.855h-30.057V638.943z"/>
							</g>
						</g>
					</g>
					<g>
						<g>
							<rect x="1130.22" y="560.094" fill="#7E9AFF" width="32.045" height="79.843"/>
						</g>
						<g>
							<g opacity="0.2">
								<polygon fill="#FFFFFF" points="1152.439,561.088 1131.214,627.165 1131.214,638.943 1132.682,638.943 1157.69,561.088                   "/>
							</g>
							<g opacity="0.2">
								<polygon fill="#FFFFFF" points="1131.214,615.105 1148.565,561.088 1146.809,561.088 1131.214,609.637         "/>
							</g>
							<g opacity="0.2">
								<polygon fill="#FFFFFF" points="1161.868,565.563 1138.297,638.943 1143.548,638.943 1161.868,581.91         "/>
							</g>
						</g>
						<g>
							<g>
								<rect x="1130.22" y="570.625" fill="#EEEEEE" width="32.045" height="1.466"/>
							</g>
							<g>
								<rect x="1130.22" y="584.953" fill="#EEEEEE" width="32.045" height="1.466"/>
							</g>
							<g>
								<rect x="1130.22" y="599.283" fill="#EEEEEE" width="32.045" height="1.466"/>
							</g>
							<g>
								<rect x="1130.22" y="613.61" fill="#EEEEEE" width="32.045" height="1.466"/>
							</g>
							<g>
								<rect x="1130.22" y="627.94" fill="#EEEEEE" width="32.045" height="1.466"/>
							</g>
						</g>
						<g>
							<rect x="1145.511" y="560.094" fill="#EEEEEE" width="1.466" height="79.843"/>
						</g>
						<g opacity="0.1">
							<polygon points="1161.603,563.023 1134.105,563.023 1134.105,639.553 1130.371,639.553 1130.371,560.621 1161.603,560.621                 "/>
						</g>
						<g>
							<g>
								<path fill="#F6EECC" d="M1163.259,640.931h-34.033V559.1h34.033L1163.259,640.931L1163.259,640.931z M1131.214,638.943          h30.057v-77.855h-30.057V638.943z"/>
							</g>
						</g>
					</g>
					<g>
						<g>
							<rect x="1193.986" y="560.094" fill="#7E9AFF" width="32.045" height="79.843"/>
						</g>
						<g>
							<g opacity="0.2">
								<polygon fill="#FFFFFF" points="1216.204,561.088 1194.979,627.165 1194.979,638.943 1196.447,638.943 1221.455,561.088                   "/>
							</g>
							<g opacity="0.2">
								<polygon fill="#FFFFFF" points="1194.979,615.105 1212.331,561.088 1210.574,561.088 1194.979,609.637         "/>
							</g>
							<g opacity="0.2">
								<polygon fill="#FFFFFF" points="1225.633,565.563 1202.062,638.943 1207.313,638.943 1225.633,581.91         "/>
							</g>
						</g>
						<g>
							<g>
								<rect x="1193.986" y="570.625" fill="#EEEEEE" width="32.045" height="1.466"/>
							</g>
							<g>
								<rect x="1193.986" y="584.953" fill="#EEEEEE" width="32.045" height="1.466"/>
							</g>
							<g>
								<rect x="1193.986" y="599.283" fill="#EEEEEE" width="32.045" height="1.466"/>
							</g>
							<g>
								<rect x="1193.986" y="613.61" fill="#EEEEEE" width="32.045" height="1.466"/>
							</g>
							<g>
								<rect x="1193.986" y="627.94" fill="#EEEEEE" width="32.045" height="1.466"/>
							</g>
						</g>
						<g>
							<rect x="1209.276" y="560.094" fill="#EEEEEE" width="1.466" height="79.843"/>
						</g>
						<g opacity="0.1">
							<polygon points="1225.368,563.023 1197.87,563.023 1197.87,639.553 1194.136,639.553 1194.136,560.621 1225.368,560.621                 "/>
						</g>
						<g>
							<g>
								<path fill="#F6EECC" d="M1227.024,640.931h-34.033V559.1h34.033L1227.024,640.931L1227.024,640.931z M1194.979,638.943          h30.057v-77.855h-30.057V638.943z"/>
							</g>
						</g>
					</g>
				</g>
			</g>
			<g>
				<g>
					<rect x="800.925" y="491.821" fill="#7E9AFF" width="135.909" height="32.045"/>
				</g>
				<g opacity="0.1">
					<polygon points="933.905,523.203 933.905,495.705 801.309,495.705 801.309,491.971 936.307,491.971 936.307,523.203      "/>
				</g>
				<g>
					<g>
						<path fill="#F6EECC" d="M799.931,524.859v-34.033h137.896v34.033L799.931,524.859L799.931,524.859z M801.919,492.814v30.057        H935.84v-30.057H801.919z"/>
					</g>
				</g>
				<polygon opacity="0.2" fill="#FFFFFF" points="840.443,523.203 837.582,523.203 852.612,492.814 855.472,492.814     "/>
				<polygon opacity="0.2" fill="#FFFFFF" points="880.663,523.203 877.802,523.203 892.832,492.814 895.693,492.814     "/>
				<polygon opacity="0.2" fill="#FFFFFF" points="889.608,523.203 886.747,523.203 901.777,492.814 904.638,492.814     "/>
				<polygon opacity="0.2" fill="#FFFFFF" points="849.234,523.203 844.582,523.203 859.612,492.814 864.264,492.814     "/>
				<polygon opacity="0.2" fill="#FFFFFF" points="897.797,523.203 893.145,523.203 908.175,492.814 912.827,492.814     "/>
			</g>
			<g>
				<rect x="501.859" y="469.902" opacity="0.1" width="17.751" height="8.523"/>
				<rect x="510.734" y="478.425" opacity="0.1" width="17.751" height="8.523"/>
			</g>
			<g>
				<rect x="469.349" y="593.729" opacity="0.1" width="17.751" height="8.523"/>
				<rect x="478.225" y="602.253" opacity="0.1" width="17.751" height="8.523"/>
			</g>
			<g>
				<rect x="635.815" y="483.297" opacity="0.1" width="17.751" height="8.523"/>
				<rect x="626.939" y="491.821" opacity="0.1" width="17.751" height="8.523"/>
			</g>
			<g>
				<rect x="1033.93" y="618.958" opacity="0.1" width="17.751" height="8.523"/>
				<rect x="1025.055" y="627.481" opacity="0.1" width="17.751" height="8.523"/>
			</g>
			<g>
				<rect x="727.356" y="465.64" opacity="0.1" width="17.751" height="8.523"/>
			</g>
			<g>
				<rect x="696.991" y="575.513" opacity="0.1" width="17.751" height="8.523"/>
			</g>
			<g>
				<rect x="991.317" y="463.775" opacity="0.1" width="17.751" height="8.523"/>
			</g>
			<g>
				<rect x="1248.085" y="627.481" opacity="0.1" width="17.751" height="8.523"/>
			</g>
			<g>
				<rect x="864.489" y="534.882" opacity="0.1" width="17.751" height="8.523"/>
				<rect x="873.365" y="543.406" opacity="0.1" width="17.751" height="8.523"/>
			</g>
			<g>
				<rect x="1148.953" y="484.291" opacity="0.1" width="17.751" height="8.523"/>
				<rect x="1157.828" y="492.814" opacity="0.1" width="17.751" height="8.523"/>
			</g>
			<g opacity="0.7">
				<path fill="#884C2C" d="M789.538,423.175c0.387,0.481,0.909,0.722,1.565,0.722c0.658,0,1.176-0.241,1.559-0.722      c0.383-0.483,0.574-1.142,0.574-1.977v-5.756h2.326v5.831c0,1.511-0.418,2.672-1.253,3.481      c-0.834,0.812-1.904,1.215-3.207,1.215s-2.372-0.408-3.213-1.221c-0.841-0.816-1.259-1.975-1.259-3.475v-5.831h2.324v5.756      C788.955,422.032,789.151,422.692,789.538,423.175z"/>
				<path fill="#884C2C" d="M813.023,415.442h2.326v10.423h-2.326l-4.965-6.532v6.532h-2.326v-10.423h2.177l5.115,6.711V415.442z"/>
				<path fill="#884C2C" d="M825.667,415.442h2.326v10.423h-2.326V415.442z"/>
				<path fill="#884C2C" d="M842.16,422.078l2.655-6.636h2.52l-4.191,10.423h-1.969l-4.189-10.423h2.52L842.16,422.078z"/>
				<path fill="#884C2C" d="M863.841,415.442v2.072h-5.19v2.148h4.667v1.983h-4.667v2.162h5.354v2.058h-7.681v-10.423H863.841z"/>
				<path fill="#884C2C" d="M882.287,418.903c0,1.669-0.66,2.749-1.983,3.236l2.641,3.727h-2.863l-2.312-3.325h-1.611v3.325h-2.326      v-10.423h3.952c1.621,0,2.776,0.275,3.467,0.82C881.941,416.809,882.287,417.689,882.287,418.903z M879.484,420.139      c0.289-0.258,0.433-0.668,0.433-1.23c0-0.562-0.15-0.947-0.448-1.155c-0.297-0.21-0.82-0.314-1.565-0.314h-1.746v3.088h1.7      C878.653,420.528,879.194,420.399,879.484,420.139z"/>
				<path fill="#884C2C" d="M894.864,417.523c-0.225,0.183-0.335,0.427-0.335,0.73s0.135,0.543,0.41,0.722      c0.273,0.179,0.903,0.391,1.894,0.635c0.988,0.244,1.756,0.61,2.303,1.097c0.547,0.487,0.82,1.196,0.82,2.131      s-0.35,1.694-1.051,2.274c-0.701,0.583-1.623,0.872-2.765,0.872c-1.652,0-3.138-0.61-4.459-1.833l1.386-1.7      c1.124,0.984,2.162,1.475,3.117,1.475c0.427,0,0.764-0.091,1.007-0.275c0.244-0.183,0.364-0.433,0.364-0.745      c0-0.314-0.129-0.562-0.387-0.747c-0.258-0.183-0.77-0.37-1.536-0.558c-1.213-0.289-2.1-0.664-2.661-1.126      c-0.562-0.464-0.843-1.188-0.843-2.179c0-0.988,0.356-1.752,1.065-2.289c0.711-0.537,1.598-0.805,2.661-0.805      c0.697,0,1.392,0.121,2.089,0.358c0.695,0.24,1.3,0.579,1.819,1.016l-1.178,1.7c-0.905-0.687-1.839-1.03-2.803-1.03      C895.392,417.246,895.086,417.338,894.864,417.523z"/>
				<path fill="#884C2C" d="M909.692,415.442h2.326v10.423h-2.326V415.442z"/>
				<path fill="#884C2C" d="M926.752,417.454v8.411h-2.326v-8.411h-2.951v-2.012h8.23v2.012H926.752z"/>
				<path fill="#884C2C" d="M943.645,425.865h-2.326v-4.116l-3.608-6.307h2.52l2.251,3.877l2.252-3.877h2.52l-3.608,6.307V425.865z"/>
			</g>
		</g>
	</g>
	
</g>

</svg>